<svg width="80" height="81" viewBox="0 0 80 81" fill="none" xmlns="http://www.w3.org/2000/svg">
<path d="M66.6666 53.8334V23.8334C66.6666 22.0653 65.9642 20.3696 64.7139 19.1194C63.4637 17.8691 61.768 17.1667 59.9999 17.1667H19.9999C18.2318 17.1667 16.5361 17.8691 15.2859 19.1194C14.0356 20.3696 13.3332 22.0653 13.3332 23.8334V53.8334M66.6666 53.8334H13.3332M66.6666 53.8334L70.9332 62.3334C71.1902 62.8434 71.3119 63.4108 71.2866 63.9813C71.2613 64.5518 71.0898 65.1062 70.7887 65.5914C70.4875 66.0766 70.0668 66.4762 69.5668 66.7521C69.0668 67.028 68.5043 67.1707 67.9332 67.1668H12.0666C11.4955 67.1707 10.9331 67.028 10.4331 66.7521C9.93306 66.4762 9.51231 66.0766 9.21116 65.5914C8.91001 65.1062 8.73856 64.5518 8.71324 63.9813C8.68792 63.4108 8.80959 62.8434 9.06657 62.3334L13.3332 53.8334" stroke="#0147FF" stroke-width="2" stroke-linecap="round" stroke-linejoin="round"/>
</svg>
