<svg width="81" height="80" viewBox="0 0 81 80" fill="none" xmlns="http://www.w3.org/2000/svg">
<path d="M24.0005 33.3333V73.3333" stroke="#242424" stroke-width="2" stroke-linecap="round" stroke-linejoin="round"/>
<path d="M50.6668 19.6001L47.3335 33.3334H66.7668C67.8018 33.3334 68.8225 33.5744 69.7482 34.0372C70.674 34.5001 71.4792 35.1721 72.1002 36.0001C72.7211 36.8281 73.1408 37.7892 73.326 38.8075C73.5111 39.8258 73.4566 40.8732 73.1668 41.8667L65.4002 68.5334C64.9963 69.9182 64.1541 71.1346 63.0002 72.0001C61.8462 72.8656 60.4426 73.3334 59.0002 73.3334H14.0002C12.2321 73.3334 10.5364 72.631 9.28612 71.3808C8.03587 70.1305 7.3335 68.4349 7.3335 66.6667V40.0001C7.3335 38.232 8.03587 36.5363 9.28612 35.286C10.5364 34.0358 12.2321 33.3334 14.0002 33.3334H23.2002C24.4404 33.3328 25.6559 32.9861 26.71 32.3325C27.7641 31.6788 28.6149 30.7441 29.1668 29.6334L40.6668 6.66675C42.2388 6.68621 43.786 7.06065 45.1928 7.76207C46.5997 8.46349 47.8299 9.47377 48.7915 10.7174C49.7531 11.9611 50.4212 13.4059 50.746 14.9441C51.0707 16.4822 51.0436 18.0739 50.6668 19.6001Z" stroke="#242424" stroke-width="2" stroke-linecap="round" stroke-linejoin="round"/>
</svg>
