<svg width="80" height="80" viewBox="0 0 80 80" fill="none" xmlns="http://www.w3.org/2000/svg">
<path d="M60 26.6667C65.5228 26.6667 70 22.1896 70 16.6667C70 11.1439 65.5228 6.66675 60 6.66675C54.4772 6.66675 50 11.1439 50 16.6667C50 22.1896 54.4772 26.6667 60 26.6667Z" stroke="#242424" stroke-width="2" stroke-linecap="round" stroke-linejoin="round"/>
<path d="M20 50C25.5228 50 30 45.5228 30 40C30 34.4772 25.5228 30 20 30C14.4772 30 10 34.4772 10 40C10 45.5228 14.4772 50 20 50Z" stroke="#242424" stroke-width="2" stroke-linecap="round" stroke-linejoin="round"/>
<path d="M60 73.3333C65.5228 73.3333 70 68.8561 70 63.3333C70 57.8104 65.5228 53.3333 60 53.3333C54.4772 53.3333 50 57.8104 50 63.3333C50 68.8561 54.4772 73.3333 60 73.3333Z" stroke="#242424" stroke-width="2" stroke-linecap="round" stroke-linejoin="round"/>
<path d="M28.6333 45.0334L51.4 58.3001" stroke="#242424" stroke-width="2" stroke-linecap="round" stroke-linejoin="round"/>
<path d="M51.3666 21.7L28.6333 34.9666" stroke="#242424" stroke-width="2" stroke-linecap="round" stroke-linejoin="round"/>
</svg>
