<svg width="80" height="80" viewBox="0 0 80 80" fill="none" xmlns="http://www.w3.org/2000/svg">
<path d="M74.2412 53.1225C73.4959 51.7212 72.2734 50.6332 70.7951 50.0554C69.3169 49.4775 67.6806 49.4481 66.1825 49.9725L64.3388 50.6262C78.435 32.6125 65.1062 5.46996 42.1625 5.65746C37.7379 5.64596 33.374 6.68752 29.4316 8.69609C25.4891 10.7047 22.0812 13.6226 19.4895 17.2087C16.8977 20.7948 15.1966 24.9462 14.5266 29.3198C13.8566 33.6934 14.2369 38.1637 15.6362 42.3612H6.25C5.91848 42.3612 5.60054 42.4929 5.36612 42.7273C5.1317 42.9617 5 43.2797 5 43.6112C5 43.9427 5.1317 44.2607 5.36612 44.4951C5.60054 44.7295 5.91848 44.8612 6.25 44.8612H24.985C26.3251 44.8621 27.6431 45.2037 28.815 45.8537L36.5238 50.1362C37.7326 50.8073 39.0923 51.16 40.475 51.1612H47.405C48.255 51.1847 49.0622 51.5389 49.6551 52.1484C50.248 52.7579 50.5797 53.5747 50.5797 54.425C50.5797 55.2752 50.248 56.092 49.6551 56.7015C49.0622 57.311 48.255 57.6652 47.405 57.6887H32.7075C32.376 57.6887 32.058 57.8204 31.8236 58.0548C31.5892 58.2892 31.4575 58.6072 31.4575 58.9387C31.4575 59.2702 31.5892 59.5882 31.8236 59.8226C32.058 60.057 32.376 60.1887 32.7075 60.1887H47.405C48.376 60.1607 49.3273 59.9073 50.1835 59.4485C51.0398 58.9896 51.7776 58.338 52.3387 57.545C52.3487 57.5337 60.4263 54.6762 60.44 54.6662L67.02 52.3275C68.0278 51.969 69.1357 52.0181 70.1078 52.4645C71.0799 52.9109 71.8393 53.7191 72.2242 54.7171C72.6091 55.7151 72.5891 56.824 72.1686 57.8075C71.748 58.791 70.96 59.5714 69.9725 59.9825L44.44 70.6125C42.2273 71.5393 39.8341 71.955 37.4385 71.8286C35.0428 71.7022 32.7066 71.037 30.6038 69.8825C26.2563 67.675 19.8725 63.1 14.7538 63.4637H6.25C5.91848 63.4637 5.60054 63.5954 5.36612 63.8298C5.1317 64.0642 5 64.3822 5 64.7137C5 65.0452 5.1317 65.3632 5.36612 65.5976C5.60054 65.832 5.91848 65.9637 6.25 65.9637C10.5213 66.12 17.4875 65.2137 21.2512 67.6225C26.035 70.115 32.6687 74.7437 38.2738 74.3512C40.7208 74.3494 43.1432 73.863 45.4012 72.92L70.9325 62.2912C71.7747 61.9336 72.5341 61.406 73.163 60.7414C73.792 60.0768 74.2769 59.2895 74.5875 58.4288C74.8981 57.5681 75.0277 56.6526 74.9681 55.7395C74.9085 54.8264 74.6611 53.9355 74.2412 53.1225ZM47.405 48.66H40.475C39.5172 48.6596 38.5752 48.4157 37.7375 47.9512L30.0288 43.6687C28.4854 42.8127 26.7499 42.3628 24.985 42.3612H18.2812C16.8597 38.5168 16.3899 34.3854 16.9118 30.3199C17.4337 26.2544 18.9319 22.3757 21.2784 19.0149C23.6249 15.6542 26.7499 12.9114 30.3866 11.0207C34.0234 9.12995 38.0637 8.14759 42.1625 8.15746C65.2575 8.14121 76.3838 36.8887 59.33 52.4075L53.1512 54.6025C53.1778 53.8315 53.0487 53.063 52.7718 52.343C52.4949 51.6229 52.0759 50.966 51.5396 50.4114C51.0033 49.8568 50.3609 49.4159 49.6505 49.115C48.9401 48.8141 48.1765 48.6593 47.405 48.66Z" fill="#898989"/>
<path d="M46.4538 22.1473C46.4538 22.4789 46.5855 22.7968 46.8199 23.0312C47.0543 23.2656 47.3722 23.3973 47.7038 23.3973C48.0353 23.3973 48.3532 23.2656 48.5876 23.0312C48.8221 22.7968 48.9538 22.4789 48.9538 22.1473C48.9511 20.5627 48.3954 19.0287 47.3827 17.8099C46.37 16.5911 44.9636 15.7639 43.4063 15.4711V13.0586C43.4063 12.7271 43.2746 12.4091 43.0401 12.1747C42.8057 11.9403 42.4878 11.8086 42.1563 11.8086C41.8247 11.8086 41.5068 11.9403 41.2724 12.1747C41.038 12.4091 40.9063 12.7271 40.9063 13.0586V15.4711C39.3592 15.7756 37.966 16.6079 36.9645 17.8257C35.9631 19.0435 35.4156 20.5713 35.4156 22.148C35.4156 23.7247 35.9631 25.2524 36.9645 26.4703C37.966 27.6881 39.3592 28.5203 40.9063 28.8248V37.3323C40.0273 37.0668 39.2568 36.5261 38.7082 35.7898C38.1596 35.0535 37.8618 34.1605 37.8588 33.2423C37.8588 32.9108 37.7271 32.5929 37.4926 32.3585C37.2582 32.124 36.9403 31.9923 36.6088 31.9923C36.2772 31.9923 35.9593 32.124 35.7249 32.3585C35.4905 32.5929 35.3588 32.9108 35.3588 33.2423C35.3615 34.827 35.9171 36.361 36.9298 37.5798C37.9426 38.7986 39.3489 39.6258 40.9063 39.9186V42.3311C40.9063 42.6626 41.038 42.9806 41.2724 43.215C41.5068 43.4494 41.8247 43.5811 42.1563 43.5811C42.4878 43.5811 42.8057 43.4494 43.0401 43.215C43.2746 42.9806 43.4063 42.6626 43.4063 42.3311V39.9186C44.9643 39.6274 46.3714 38.8005 47.384 37.5812C48.3965 36.3618 48.9508 34.8267 48.9508 33.2417C48.9508 31.6567 48.3965 30.1217 47.384 28.9023C46.3714 27.6829 44.9643 26.856 43.4063 26.5648V18.0586C44.285 18.3241 45.0554 18.8646 45.604 19.6006C46.1526 20.3367 46.4504 21.2294 46.4538 22.1473ZM37.8588 22.1473C37.8621 21.2294 38.16 20.3367 38.7086 19.6006C39.2572 18.8646 40.0275 18.3241 40.9063 18.0586V26.2373C40.0273 25.9718 39.2568 25.4311 38.7082 24.6948C38.1596 23.9585 37.8618 23.0655 37.8588 22.1473ZM46.4538 33.2423C46.4504 34.1603 46.1526 35.053 45.604 35.789C45.0554 36.5251 44.285 37.0656 43.4063 37.3311V29.1523C44.2851 29.4181 45.0555 29.9588 45.6041 30.6951C46.1527 31.4313 46.4505 32.3242 46.4538 33.2423Z" fill="#898989"/>
</svg>
