<svg width="80" height="80" viewBox="0 0 80 80" fill="none" xmlns="http://www.w3.org/2000/svg">
<g clip-path="url(#clip0_2_1263)">
<path d="M16.3909 70.9198H6.41844C6.03914 70.9198 5.67537 70.7605 5.40716 70.4768C5.13896 70.1932 4.98828 69.8085 4.98828 69.4074C4.98828 69.0063 5.13896 68.6217 5.40716 68.338C5.67537 68.0544 6.03914 67.8951 6.41844 67.8951H16.3923C16.7716 67.8951 17.1354 68.0544 17.4036 68.338C17.6718 68.6217 17.8225 69.0063 17.8225 69.4074C17.8225 69.8085 17.6718 70.1932 17.4036 70.4768C17.1354 70.7605 16.7716 70.9198 16.3923 70.9198H16.3909ZM33.015 70.9198H23.0411C22.6618 70.9198 22.2981 70.7605 22.0298 70.4768C21.7616 70.1932 21.611 69.8085 21.611 69.4074C21.611 69.0063 21.7616 68.6217 22.0298 68.338C22.2981 68.0544 22.6618 67.8951 23.0411 67.8951H33.015C33.3943 67.8951 33.7581 68.0544 34.0263 68.338C34.2945 68.6217 34.4452 69.0063 34.4452 69.4074C34.4452 69.8085 34.2945 70.1932 34.0263 70.4768C33.7581 70.7605 33.3943 70.9198 33.015 70.9198ZM49.6391 70.9198H39.6652C39.2859 70.9198 38.9222 70.7605 38.654 70.4768C38.3858 70.1932 38.2351 69.8085 38.2351 69.4074C38.2351 69.0063 38.3858 68.6217 38.654 68.338C38.9222 68.0544 39.2859 67.8951 39.6652 67.8951H49.6391C50.0184 67.8951 50.3822 68.0544 50.6504 68.338C50.9186 68.6217 51.0693 69.0063 51.0693 69.4074C51.0693 69.8085 50.9186 70.1932 50.6504 70.4768C50.3822 70.7605 50.0184 70.9198 49.6391 70.9198ZM66.2632 70.9198H56.2908C55.9115 70.9198 55.5477 70.7605 55.2795 70.4768C55.0113 70.1932 54.8606 69.8085 54.8606 69.4074C54.8606 69.0063 55.0113 68.6217 55.2795 68.338C55.5477 68.0544 55.9115 67.8951 56.2908 67.8951H66.2632C66.6425 67.8951 67.0063 68.0544 67.2745 68.338C67.5427 68.6217 67.6934 69.0063 67.6934 69.4074C67.6934 69.8085 67.5427 70.1932 67.2745 70.4768C67.0063 70.7605 66.6425 70.9198 66.2632 70.9198ZM64.4198 62.4218H50.6688C50.1293 62.421 49.6121 62.194 49.2306 61.7906C48.8491 61.3872 48.6345 60.8403 48.6337 60.2697V51.002C48.6341 50.4312 48.8486 49.8839 49.2301 49.4801C49.6117 49.0764 50.1291 48.8492 50.6688 48.8484H64.4198C64.9598 48.8488 65.4776 49.0758 65.8594 49.4796C66.2412 49.8834 66.4559 50.4309 66.4563 51.002V60.2697C66.4556 60.8405 66.2407 61.3877 65.8589 61.7912C65.4771 62.1946 64.9595 62.4214 64.4198 62.4218ZM51.494 59.3971H63.596V51.8731H51.494V59.3971Z" fill="#898989"/>
<path d="M79.9985 31.9129C80.0006 31.1047 79.851 30.3041 79.5584 29.5575C79.2658 28.8109 78.8359 28.1331 78.2938 27.5634L63.599 12.0224L54.5232 2.42642L53.934 1.80182C53.3939 1.23058 52.7526 0.777438 52.0469 0.46828C51.3412 0.159122 50.5847 0 49.8209 0C49.057 0 48.3005 0.159122 47.5948 0.46828C46.8891 0.777438 46.2478 1.23058 45.7077 1.80182L17.8455 31.2687H5.81787C4.27547 31.2699 2.79655 31.9182 1.70577 33.0714C0.614999 34.2246 0.00151508 35.7884 0 37.4194V73.8522C0.0022721 75.4828 0.61609 77.0458 1.70678 78.1983C2.79748 79.3508 4.27596 79.9988 5.81787 80H66.8669C68.409 79.9984 69.8876 79.3499 70.978 78.1967C72.0685 77.0436 72.6818 75.48 72.6833 73.8492V42.1955L78.2952 36.261C78.8374 35.6913 79.2672 35.0135 79.5598 34.2669C79.8524 33.5202 80.0021 32.7196 80 31.9114L79.9985 31.9129ZM59.5545 12.0224L41.3543 31.2687H31.2932L54.5232 6.70338L59.5545 12.0224ZM47.73 3.9403C48.2934 3.37189 49.0422 3.05477 49.8209 3.05477C50.5995 3.05477 51.3483 3.37189 51.9117 3.9403L52.501 4.5649L27.2473 31.2687H21.8885L47.73 3.9403ZM69.8216 73.8507C69.8208 74.6796 69.5091 75.4742 68.9549 76.0603C68.4007 76.6464 67.6492 76.976 66.8654 76.9768H5.81787C5.03395 76.976 4.28234 76.6464 3.7279 76.0604C3.17345 75.4744 2.86144 74.6797 2.86031 73.8507V37.4194C2.86144 36.5905 3.17345 35.7958 3.7279 35.2098C4.28234 34.6238 5.03395 34.2942 5.81787 34.2934H66.8669C67.6506 34.2942 68.4021 34.6238 68.9563 35.2099C69.5105 35.796 69.8222 36.5906 69.823 37.4194L69.8216 73.8507ZM76.2716 34.124L72.6819 37.92V37.421C72.6807 35.7899 72.0676 34.226 70.9771 33.0725C69.8866 31.919 68.4078 31.2703 66.8654 31.2687H45.3988L61.5767 14.1608L76.2716 29.7019C76.826 30.2884 77.1374 31.0837 77.1374 31.9129C77.1374 32.7422 76.826 33.5375 76.2716 34.124Z" fill="#898989"/>
</g>
<defs>
<clipPath id="clip0_2_1263">
<rect width="80" height="80" fill="white"/>
</clipPath>
</defs>
</svg>
