<svg width="80" height="80" viewBox="0 0 80 80" fill="none" xmlns="http://www.w3.org/2000/svg">
<path d="M40.5412 14.6787C38.6733 14.6152 36.8115 14.927 35.0663 15.5958C33.321 16.2646 31.7276 17.2768 30.3805 18.5724C29.0333 19.868 27.9598 21.4207 27.2235 23.1386C26.4872 24.8565 26.103 26.7047 26.0938 28.5737C26.0938 28.9053 26.2254 29.2232 26.4599 29.4576C26.6943 29.692 27.0122 29.8237 27.3438 29.8237C27.6753 29.8237 27.9932 29.692 28.2276 29.4576C28.4621 29.2232 28.5938 28.9053 28.5938 28.5737C29.1562 13.7025 50.1437 13.3737 51.3975 28.1287C51.4712 30.1389 51.0141 32.133 50.0723 33.9104C49.1305 35.6879 47.7372 37.1859 46.0325 38.2537C43.8317 39.5808 42.0071 41.449 40.7324 43.6805C39.4577 45.9121 38.7753 48.4327 38.75 51.0025V58.7162C38.75 59.0478 38.8817 59.3657 39.1161 59.6001C39.3505 59.8345 39.6685 59.9662 40 59.9662C40.3315 59.9662 40.6495 59.8345 40.8839 59.6001C41.1183 59.3657 41.25 59.0478 41.25 58.7162V51.0025C41.2774 48.8574 41.853 46.7551 42.922 44.8952C43.991 43.0353 45.5178 41.4797 47.3575 40.3762C58.8825 33.135 54.14 15.2712 40.5412 14.68V14.6787ZM40 63.035C39.6295 63.046 39.2779 63.2008 39.0198 63.4668C38.7616 63.7327 38.6172 64.0887 38.6172 64.4594C38.6172 64.83 38.7616 65.186 39.0198 65.452C39.2779 65.7179 39.6295 65.8728 40 65.8837C40.3779 65.8837 40.7404 65.7336 41.0076 65.4664C41.2749 65.1991 41.425 64.8367 41.425 64.4587C41.425 64.0808 41.2749 63.7183 41.0076 63.4511C40.7404 63.1839 40.3779 63.0337 40 63.0337V63.035Z" fill="#898989"/>
<path d="M40 5C30.7206 5.01026 21.8241 8.70104 15.2626 15.2626C8.70104 21.8241 5.01026 30.7206 5 40C6.9225 86.4325 73.085 86.4187 75 40C74.9897 30.7206 71.299 21.8241 64.7374 15.2626C58.1759 8.70104 49.2794 5.01026 40 5ZM40 72.5C31.3835 72.4901 23.1228 69.0628 17.03 62.97C10.9372 56.8772 7.50992 48.6165 7.5 40C9.285 -3.11625 70.7213 -3.10375 72.5 40C72.4901 48.6165 69.0628 56.8772 62.97 62.97C56.8772 69.0628 48.6165 72.4901 40 72.5Z" fill="#898989"/>
</svg>
